<svg xmlns="http://www.w3.org/2000/svg" aria-hidden="true" style="position:absolute;width:0;height:0;overflow:hidden">
  <defs>
    <symbol id="icon-strategy" viewBox="0 0 64 64">
      <path d="M61.546 44.195 44.66 27.185l1.874-9.231c.484.189.998.288 1.517.291h.013a4.319 4.319 0 1 0-4.018-2.871l-9.92 1.211L17.945.319a1.063 1.063 0 0 0-.753-.32c-.28.001-.548.113-.747.31L13.42 3.317a1.067 1.067 0 0 0 0 1.508l1.628 1.651a29.885 29.885 0 0 0 5.039 35.326.99.99 0 0 0 .292.195 6.276 6.276 0 0 0-.105 1.094v12.373h-12.8a5.339 5.339 0 0 0-5.333 5.333v2.133c0 .589.478 1.067 1.067 1.067h49.067c.589 0 1.067-.478 1.067-1.067v-2.133a5.34 5.34 0 0 0-5.333-5.333h-12.8V49.98c2.005.421 4.048.635 6.097.64a29.697 29.697 0 0 0 14.08-3.567l1.636 1.646c.199.203.469.318.753.32.28-.002.548-.113.747-.31l3.025-3.008a1.067 1.067 0 0 0 0-1.508zM46.56 12.466a2.134 2.134 0 1 1 1.504 3.646h-.006a2.133 2.133 0 0 1-1.493-3.646h-.004zm-2.511 7.009-1.197 5.891-2.351-2.365 3.548-3.526zm-1.212-1.803-3.84 3.818-2.971-2.987 6.811-.831zM48.008 57.6a3.2 3.2 0 0 1 3.2 3.2v1.067H4.275V60.8a3.2 3.2 0 0 1 3.2-3.2h40.533zm-14.933-4.267v2.133H22.408v-2.133h10.667zM22.408 51.2v-8.107c0-2.588 2.393-4.693 5.333-4.693s5.333 2.106 5.333 4.693V51.2H22.407zm12.8-3.392v-4.715c0-3.764-3.349-6.827-7.467-6.827a7.6 7.6 0 0 0-6.562 3.572 27.739 27.739 0 0 1-4.557-31.774l37.204 37.417a27.643 27.643 0 0 1-18.618 2.326zm22.578-1.367L15.672 4.079l1.509-1.504 15.87 15.96c.008 0 .012.014.019.019l26.229 26.383-1.514 1.504z" style="fill:var(--color1, #2e2f42)"/>
      <path d="M27.751 40.533h-.01a3.2 3.2 0 0 0-.01 6.4h.01a3.2 3.2 0 0 0 .01-6.4zm.747 3.957a1.066 1.066 0 1 1-.756-1.823 1.067 1.067 0 0 1 .747 1.823h.01z" style="fill:var(--color2, #4d5ae5)"/>
    </symbol>
    <symbol id="icon-punctuality" viewBox="0 0 64 64">
      <path d="M62.593 30.602C62.59 13.697 48.882-.004 31.977 0S1.371 13.711 1.375 30.616a30.609 30.609 0 0 0 21.299 29.152c.121.038.247.058.374.057.241-.001.477-.065.685-.188.27-.16.472-.414.566-.713l7.73-24.5a3.826 3.826 0 0 0-.04-7.653 3.763 3.763 0 0 0-1.64.383L20.137 16.941a1.276 1.276 0 0 0-1.803 1.804L28.54 28.963a3.753 3.753 0 0 0 1.073 4.618l-7.365 23.346C7.692 51.565.239 35.419 5.601 20.864S27.109-1.145 41.664 4.217C56.22 9.579 63.673 25.725 58.311 40.28a28.092 28.092 0 0 1-14.924 15.947l-.796-3.748a1.275 1.275 0 0 0-2.097-.687l-7.674 6.851a1.276 1.276 0 0 0 .461 2.169l9.797 3.127a1.275 1.275 0 0 0 1.638-1.479l-.782-3.678a30.51 30.51 0 0 0 18.658-28.178zm-30.609-1.275a1.275 1.275 0 1 1 0 2.55 1.275 1.275 0 0 1 0-2.55zm4.201 29.728 4.368-3.897 1.206 5.681-5.574-1.784z" style="fill:var(--color1, #2e2f42)"/>
      <path d="M30.709 6.37v2.551a1.275 1.275 0 1 0 2.55 0V6.37a1.275 1.275 0 0 0-2.55 0zM7.752 29.327a1.275 1.275 0 1 0 0 2.55h2.551a1.275 1.275 0 1 0 0-2.55H7.752zm48.464 2.551a1.275 1.275 0 1 0 0-2.55h-2.551a1.275 1.275 0 0 0 0 2.55h2.551z" style="fill:var(--color2, #4d5ae5)"/>
    </symbol>
    <symbol id="icon-diligence" viewBox="0 0 64 64">
      <path d="M29.851 29.929h2.132v9.595h-2.132v-9.595zm8.529 4.265h2.132v5.331H38.38v-5.331zm-17.058 3.198h2.132v2.132h-2.132v-2.132zm-6.397-1.066h2.132v3.198h-2.132v-3.198z" style="fill:var(--color2, #4d5ae5)"/>
      <path d="M3.198 56.582h51.173a3.198 3.198 0 0 0 3.198-3.198V49.12a3.198 3.198 0 0 0-3.198-3.198h-1.066V19.335l6.056-5.737a3.216 3.216 0 1 0-1.494-1.526l-4.563 4.325v-2.46a3.198 3.198 0 0 0-3.198-3.198H7.462a3.198 3.198 0 0 0-3.198 3.198V45.92H3.198A3.198 3.198 0 0 0 0 49.118v4.264a3.198 3.198 0 0 0 3.198 3.198zm57.57-46.909a1.066 1.066 0 1 1 0 2.131 1.066 1.066 0 0 1 0-2.131zM6.397 13.938c0-.589.477-1.066 1.066-1.066h42.644c.589 0 1.066.477 1.066 1.066v4.477l-2.132 2.026V16.07c0-.589-.477-1.066-1.066-1.066H9.595c-.589 0-1.066.477-1.066 1.066v26.653c0 .589.477 1.066 1.066 1.066h38.38c.589 0 1.066-.477 1.066-1.066V23.374l2.132-2.02v24.567H6.396V13.938zm9.595 13.859a3.197 3.197 0 1 0 2.214 5.496l3.706 1.859c.43.215.953.114 1.273-.245l7.878-8.863 7.744 5.803c.415.311.995.278 1.372-.079l6.73-6.375v16.262H10.661v-24.52h36.248v5.321l-7.543 7.143-7.809-5.854a1.066 1.066 0 0 0-1.436.144l-7.986 8.985-2.985-1.493c.022-.128.035-.257.041-.387a3.198 3.198 0 0 0-3.198-3.198zm1.066 3.198a1.066 1.066 0 1 1-2.131 0 1.066 1.066 0 0 1 2.131 0zm6.396 17.058h10.661v1.066c0 .589-.477 1.066-1.066 1.066H24.52a1.066 1.066 0 0 1-1.066-1.066v-1.066zM2.132 49.119c0-.589.477-1.066 1.066-1.066h18.124v1.066a3.198 3.198 0 0 0 3.198 3.198h8.529a3.198 3.198 0 0 0 3.198-3.198v-1.066h18.124c.589 0 1.066.477 1.066 1.066v4.264c0 .589-.477 1.066-1.066 1.066H3.198a1.066 1.066 0 0 1-1.066-1.066v-4.264z" style="fill:var(--color1, #2e2f42)"/>
    </symbol>
    <symbol id="icon-technologies" viewBox="0 0 64 64">
      <path d="M63.948 9.048a1.067 1.067 0 0 0-.861-.725l-3.821-.556-1.71-3.462c-.358-.73-1.554-.73-1.913 0l-1.71 3.462-3.821.556a1.066 1.066 0 0 0-.592 1.818l2.766 2.696-.653 3.806c-.068.4.096.804.423 1.043.332.241.765.271 1.124.081l3.418-1.797 3.418 1.797a1.072 1.072 0 0 0 1.124-.081c.328-.239.493-.643.423-1.043l-.653-3.806 2.766-2.696a1.07 1.07 0 0 0 .27-1.093zm-4.926 2.654a1.064 1.064 0 0 0-.306.944l.382 2.228-2.001-1.052a1.066 1.066 0 0 0-.994 0l-2.001 1.052.382-2.228a1.068 1.068 0 0 0-.306-.944l-1.62-1.579 2.238-.325c.348-.05.648-.269.803-.584L56.6 7.187l1.001 2.027c.156.315.456.533.803.584l2.238.325-1.618 1.579zm-6.755 29.342h-2.133v2.133h2.133v-2.133zm0 4.267h-2.133v2.133h2.133v-2.133zm2.133-2.133h-2.133v2.133H54.4v-2.133zm-4.266 0h-2.133v2.133h2.133v-2.133zm-5.334 9.6h-2.133v2.133H44.8v-2.133zm0 4.267h-2.133v2.133H44.8v-2.133zm2.134-2.134h-2.133v2.133h2.133v-2.133zm-4.267 0h-2.133v2.133h2.133v-2.133zM32 48.511h-2.133v2.133H32v-2.133zm0 4.267h-2.133v2.133H32v-2.133zm2.133-2.133H32v2.133h2.133v-2.133zm-4.266 0h-2.133v2.133h2.133v-2.133zM11.733 12.244H9.6v2.133h2.133v-2.133zm0 4.267H9.6v2.133h2.133v-2.133zm2.133-2.134h-2.133v2.133h2.133v-2.133zm-4.266 0H7.467v2.133H9.6v-2.133z" style="fill:var(--color2, #4d5ae5)"/>
      <path d="M49.429 28.319a3.545 3.545 0 0 0-2.377-1.409 3.552 3.552 0 0 0-2.68.704l-2.505 1.92-3.795 2.834-2.716-1.082c4.843-2.173 8.227-7.017 8.227-12.64 0-7.646-6.245-13.867-13.922-13.867S15.739 11 15.739 18.646c0 2.771.829 5.348 2.24 7.517l-5.528-.048h-.01c-.017 0-.031.009-.047.01a1.036 1.036 0 0 0-.31.062c-.026.01-.052.015-.077.027-.013.005-.026.006-.038.013L5.503 29.42l-.002.001-3.787 1.821a.881.881 0 0 0-.126.07 3.561 3.561 0 0 0-1.197 4.591 3.55 3.55 0 0 0 2.112 1.778 3.565 3.565 0 0 0 2.757-.257l2.776-1.476 4.528-2.338 2.714-.016L4.395 44.425l-.003.002-2.677 2.667a3.3 3.3 0 0 0-.98 2.355c0 .89.348 1.727.98 2.357.65.646 1.504.971 2.358.971a3.34 3.34 0 0 0 2.361-.971l2.628-2.618 3.482-2.599 1.802 1.794-3.523 3.508-.003.002-2.677 2.667a3.296 3.296 0 0 0-.98 2.355c0 .89.348 1.727.98 2.357.65.646 1.505.971 2.36.971s1.71-.324 2.361-.971l6.963-6.933.002-.003 2.019-2-.008-.008c.013-.013.031-.017.044-.031l10.332-11.316 6.942.988a.947.947 0 0 0 .524-.066c.035-.013.066-.03.099-.047.038-.019.079-.03.115-.054l6.427-4.267c.023-.016.036-.042.059-.059.026-.02.058-.029.081-.051l2.543-2.382a3.558 3.558 0 0 0 .424-4.724zM4.261 35.54c-.347.186-.74.223-1.117.103a1.428 1.428 0 0 1-.424-2.52l2.627-1.264.898 2.625-1.984 1.055zm6.994-3.655-3.097 1.6-.878-2.567 4.053-2.001-.079 2.968zm30.199-13.241c0 1.837-.438 3.569-1.198 5.119l-8.363-3.798a3.725 3.725 0 0 0-1.577-2.776l2.928-9.721c4.755 1.513 8.209 5.949 8.209 11.176zm-23.578 0c0-6.469 5.289-11.733 11.789-11.733.506 0 1 .043 1.49.104l-2.864 9.507c-.038-.001-.075-.012-.114-.012-2.065 0-3.745 1.675-3.745 3.733s1.68 3.733 3.745 3.733c1.389 0 2.589-.767 3.236-1.889l7.725 3.509c-2.149 2.893-5.589 4.78-9.473 4.78-6.5 0-11.789-5.264-11.789-11.734zm11.913 1.6c0 .882-.723 1.6-1.612 1.6s-1.612-.718-1.612-1.6c0-.882.723-1.6 1.612-1.6s1.612.718 1.612 1.6zM4.93 50.292a1.217 1.217 0 0 1-1.709.001 1.189 1.189 0 0 1 0-1.689l1.924-1.917 1.702 1.695-1.918 1.909zm6.427 7.467a1.217 1.217 0 0 1-1.71.001 1.189 1.189 0 0 1 0-1.689l1.925-1.918 1.704 1.695-1.919 1.91zm6.964-6.937-.003.002-3.53 3.52-1.704-1.695 3.527-3.51v-.001l.003-.002c.08-.08.13-.176.179-.271.014-.028.041-.051.052-.08.033-.082.038-.171.051-.257.006-.049.028-.095.028-.145 0-.072-.026-.141-.041-.211-.013-.064-.013-.129-.037-.191-.041-.1-.11-.189-.182-.275-.02-.023-.028-.053-.05-.076h-.001l-.002-.004-3.214-3.2c-.034-.034-.078-.048-.116-.077a.989.989 0 0 0-.174-.115.987.987 0 0 0-.187-.065 1.013 1.013 0 0 0-.206-.039 1.02 1.02 0 0 0-.191.01.982.982 0 0 0-.208.041.934.934 0 0 0-.189.09c-.04.022-.084.03-.122.058l-3.547 2.648-1.802-1.794 4.798-4.772 8.721 8.577-1.855 1.838zm13.637-14.034c-.031-.004-.06.008-.091.005a1.046 1.046 0 0 0-.23.014.983.983 0 0 0-.369.137.99.99 0 0 0-.166.123c-.026.022-.056.033-.08.059l-9.397 10.291-8.656-8.513 5.666-5.636a1.067 1.067 0 0 0-.76-1.822v-.001l-4.437.027.056-3.215 6.208.053a13.897 13.897 0 0 0 9.963 4.202c.875 0 1.728-.091 2.559-.245.08.064.159.129.259.17l4.819 1.92.305 1.517.356 1.771-6.005-.854zm8.083.357-.626-3.116 2.893-2.16 1.893 2.513-4.16 2.763zm7.507-5.662-1.676 1.57-1.862-2.473 1.663-1.275c.31-.239.702-.336 1.086-.286.386.054.727.256.96.569a1.428 1.428 0 0 1-.171 1.894z" style="fill:var(--color1, #2e2f42)"/>
      <path d="m27.204 37.088-4.286-4.267a1.065 1.065 0 0 0-1.505 0l-4.285 4.267a1.07 1.07 0 0 0 0 1.512l4.285 4.267a1.065 1.065 0 0 0 1.505 0l4.286-4.267a1.067 1.067 0 0 0 0-1.512zm-5.038 3.518-2.773-2.762 2.773-2.762 2.774 2.762-2.774 2.762zm12.162-30.464-.515 2.072c.142.035 3.475.903 3.475 4.298h2.133c0-4.034-3.331-5.931-5.093-6.369zm5.094 8.502h-2.133v2.134h2.133v-2.134z" style="fill:var(--color1, #2e2f42)"/>
    </symbol>
    <symbol id="icon-instagram" viewBox="0 0 32 32">
      <path d="M31.969 9.408c-.075-1.7-.35-2.869-.744-3.882a7.803 7.803 0 0 0-1.85-2.838A7.867 7.867 0 0 0 26.543.844C25.524.45 24.361.175 22.661.1 20.948.019 20.404 0 16.06 0s-4.888.019-6.595.094c-1.7.075-2.869.35-3.882.744a7.803 7.803 0 0 0-2.838 1.85A7.867 7.867 0 0 0 .901 5.52C.507 6.539.232 7.702.157 9.402c-.081 1.713-.1 2.257-.1 6.601s.019 4.888.094 6.595c.075 1.7.35 2.869.744 3.882a7.895 7.895 0 0 0 1.85 2.838 7.867 7.867 0 0 0 2.832 1.844c1.019.394 2.182.669 3.882.744 1.706.075 2.25.094 6.595.094s4.888-.019 6.595-.094c1.7-.075 2.869-.35 3.882-.744a8.181 8.181 0 0 0 4.682-4.682c.394-1.019.669-2.182.744-3.882.075-1.707.094-2.25.094-6.595s-.006-4.888-.081-6.595zm-2.882 13.065c-.069 1.563-.331 2.407-.55 2.969a5.31 5.31 0 0 1-3.038 3.038c-.563.219-1.413.481-2.969.55-1.688.075-2.194.094-6.464.094s-4.782-.019-6.464-.094c-1.563-.069-2.407-.331-2.969-.55a4.926 4.926 0 0 1-1.838-1.194 4.974 4.974 0 0 1-1.194-1.838c-.219-.563-.481-1.413-.55-2.969-.075-1.688-.094-2.194-.094-6.464s.019-4.782.094-6.464c.069-1.563.331-2.407.55-2.969a4.868 4.868 0 0 1 1.2-1.838A4.974 4.974 0 0 1 6.639 3.55c.563-.219 1.413-.481 2.969-.55 1.688-.075 2.194-.094 6.464-.094 4.276 0 4.782.019 6.464.094 1.563.069 2.407.331 2.969.55a4.914 4.914 0 0 1 1.838 1.194 4.974 4.974 0 0 1 1.194 1.838c.219.563.481 1.413.55 2.969.075 1.688.094 2.194.094 6.464s-.019 4.77-.094 6.458z"/>
      <path d="M16.059 7.783c-4.538 0-8.22 3.682-8.22 8.22s3.682 8.22 8.22 8.22 8.22-3.682 8.22-8.22-3.682-8.22-8.22-8.22zm0 13.552a5.333 5.333 0 0 1 0-10.664 5.333 5.333 0 0 1 0 10.664zM26.524 7.458a1.919 1.919 0 1 1-3.838 0 1.919 1.919 0 0 1 3.838 0z"/>
    </symbol>
    <symbol id="icon-twitter" viewBox="0 0 32 32">
      <path d="M32 6.078c-1.19.522-2.458.868-3.78 1.036a6.523 6.523 0 0 0 2.886-3.626 13.11 13.11 0 0 1-4.16 1.588A6.574 6.574 0 0 0 22.154 3c-3.632 0-6.556 2.948-6.556 6.562 0 .52.044 1.02.152 1.496-5.454-.266-10.28-2.88-13.522-6.862a6.605 6.605 0 0 0-.898 3.316 6.57 6.57 0 0 0 2.914 5.452 6.479 6.479 0 0 1-2.964-.808v.072c0 3.188 2.274 5.836 5.256 6.446a6.548 6.548 0 0 1-1.72.216 5.8 5.8 0 0 1-1.242-.112c.85 2.598 3.262 4.508 6.13 4.57a13.182 13.182 0 0 1-8.134 2.798c-.538 0-1.054-.024-1.57-.09A18.469 18.469 0 0 0 10.064 29c12.072 0 18.672-10 18.672-18.668 0-.29-.01-.57-.024-.848A13.087 13.087 0 0 0 32 6.078z"/>
    </symbol>
    <symbol id="icon-facebook" viewBox="0 0 32 32">
      <path d="M21.329 5.313h2.921V.225C23.746.156 22.013 0 19.994 0c-4.212 0-7.097 2.649-7.097 7.519V12H8.249v5.688h4.648V32h5.699V17.689h4.46l.708-5.688h-5.169V8.082c.001-1.644.444-2.769 2.735-2.769z"/>
    </symbol>
    <symbol id="icon-linkedin" viewBox="0 0 32 32">
      <path d="M31.992 32v-.001H32V20.263c0-5.741-1.236-10.164-7.948-10.164-3.227 0-5.392 1.771-6.276 3.449h-.093v-2.913h-6.364v21.364h6.627V21.42c0-2.785.528-5.479 3.977-5.479 3.399 0 3.449 3.179 3.449 5.657v10.401h6.62zM.528 10.636h6.635V32H.528V10.636zM3.843 0C1.722 0 0 1.721 0 3.843s1.721 3.879 3.843 3.879c2.121 0 3.843-1.757 3.843-3.879A3.846 3.846 0 0 0 3.843 0z"/>
    </symbol>
    <symbol id="icon-close" viewBox="0 0 32 32">
      <path d="M32 3.223 28.777 0 16 12.777 3.223 0 0 3.223 12.777 16 0 28.777 3.223 32 16 19.223 28.777 32 32 28.777 19.223 16 32 3.223z"/>
    </symbol>
    <symbol id="icon-person" viewBox="0 0 32 32">
      <path d="M16 16c2.947 0 5.333-2.387 5.333-5.333S18.946 5.334 16 5.334c-2.947 0-5.333 2.387-5.333 5.333S13.054 16 16 16zm0 2.667c-3.56 0-10.667 1.787-10.667 5.333v1.333c0 .733.6 1.333 1.333 1.333h18.667c.733 0 1.333-.6 1.333-1.333V24c0-3.547-7.107-5.333-10.667-5.333z"/>
    </symbol>
    <symbol id="icon-phone" viewBox="0 0 24 32">
      <path d="m19.635 18.487-2.451-.28a1.92 1.92 0 0 0-1.582.55l-1.775 1.775a14.514 14.514 0 0 1-6.359-6.359l1.785-1.785c.415-.415.618-.994.55-1.582l-.28-2.432a1.931 1.931 0 0 0-1.92-1.708H5.934c-1.09 0-1.997.907-1.93 1.997.511 8.24 7.102 14.821 15.332 15.332 1.09.068 1.997-.839 1.997-1.93v-1.669a1.913 1.913 0 0 0-1.698-1.911z"/>
    </symbol>
    <symbol id="icon-email" viewBox="0 0 24 32">
      <path d="M20 8H4c-1.1 0-1.99.9-1.99 2L2 22c0 1.1.9 2 2 2h16c1.1 0 2-.9 2-2V10c0-1.1-.9-2-2-2zm-.4 4.25-7.07 4.42c-.32.2-.74.2-1.06 0L4.4 12.25a.85.85 0 1 1 .9-1.44L12 15l6.7-4.19a.85.85 0 1 1 .9 1.44z"/>
    </symbol>
    <symbol id="icon-check" viewBox="0 0 40 32">
      <path d="M33.782 1.020c0.691-0.662 1.611-1.027 2.565-1.020s1.869 0.387 2.55 1.059c0.681 0.672 1.076 1.584 1.101 2.543s-0.321 1.891-0.966 2.598l-19.578 24.617c-0.337 0.365-0.743 0.657-1.195 0.86s-0.939 0.312-1.434 0.322c-0.495 0.009-0.986-0.082-1.445-0.268s-0.876-0.463-1.226-0.815l-12.984-13.054c-0.362-0.339-0.652-0.747-0.853-1.201s-0.309-0.944-0.318-1.441 0.082-0.99 0.267-1.451c0.185-0.461 0.461-0.879 0.81-1.231s0.766-0.628 1.224-0.814 0.949-0.277 1.443-0.269c0.494 0.009 0.981 0.118 1.433 0.32s0.858 0.494 1.195 0.857l10.275 10.325 17.042-21.83c0.031-0.038 0.063-0.074 0.098-0.109h-0.005z"></path>
    </symbol>
    <symbol id="icon-subscribe" viewBox="0 0 32 32">
      <path d="M32 2.667l-32 15 10.227 3.156 15.773-12.323-11.998 13.488 0.010 0.003-0.012-0.003v7.345l5.735-5.576 7.265 2.242 5-23.333z"></path>
    </symbol>
    <symbol id="icon-burger" viewBox="0 0 36 32">
      <path d="M1.199 4.002c0-0.637 0.253-1.247 0.703-1.697s1.061-0.703 1.697-0.703h28.8c0.637 0 1.247 0.253 1.697 0.703s0.703 1.061 0.703 1.697-0.253 1.247-0.703 1.697c-0.45 0.45-1.060 0.703-1.697 0.703h-28.8c-0.637 0-1.247-0.253-1.697-0.703s-0.703-1.061-0.703-1.697z"></path>
      <path d="M1.199 16.002c0-0.637 0.253-1.247 0.703-1.697s1.061-0.703 1.697-0.703h28.8c0.637 0 1.247 0.253 1.697 0.703s0.703 1.061 0.703 1.697-0.253 1.247-0.703 1.697c-0.45 0.45-1.060 0.703-1.697 0.703h-28.8c-0.637 0-1.247-0.253-1.697-0.703s-0.703-1.061-0.703-1.697z"></path>
      <path d="M1.199 28.002c0-0.637 0.253-1.247 0.703-1.697s1.061-0.703 1.697-0.703h28.8c0.637 0 1.247 0.253 1.697 0.703s0.703 1.060 0.703 1.697c0 0.636-0.253 1.247-0.703 1.697s-1.060 0.703-1.697 0.703h-28.8c-0.637 0-1.247-0.253-1.697-0.703s-0.703-1.061-0.703-1.697z"></path>
    </symbol>
  </defs>
</svg>